<svg width="21" height="20" viewBox="0 0 21 20" fill="none" xmlns="http://www.w3.org/2000/svg">
<path d="M19.9943 15.4541C19.9943 16.6046 19.9943 17.7551 19.9943 18.9056C19.9943 19.6811 19.6789 19.9965 18.9119 19.9965C16.6024 19.9965 14.2843 19.9965 11.9747 19.9965C11.2333 19.9965 10.918 19.6811 10.918 18.9312C10.918 16.6216 10.918 14.3036 10.918 11.994C10.918 11.244 11.2333 10.9287 11.9747 10.9287C14.3013 10.9287 16.6279 10.9287 18.9545 10.9287C19.6704 10.9287 19.9857 11.2526 19.9857 11.977C19.9943 13.1275 19.9943 14.295 19.9943 15.4541ZM12.7503 12.7525C12.7503 14.5763 12.7503 16.366 12.7503 18.1556C14.5741 18.1556 16.3637 18.1556 18.1534 18.1556C18.1534 16.3404 18.1534 14.5592 18.1534 12.7525C16.3552 12.7525 14.5741 12.7525 12.7503 12.7525Z" fill="#F0F3F8"/>
<path d="M4.5121 19.9962C3.36159 19.9962 2.21107 19.9962 1.06056 19.9962C0.310592 19.9962 0.0037877 19.6809 0.0037877 18.9309C0.0037877 16.6299 -0.00473463 14.3289 0.0037877 12.0364C0.0037877 11.2268 0.310592 10.9285 1.10317 10.92C3.41272 10.92 5.73079 10.92 8.04035 10.92C8.75622 10.92 9.07155 11.2438 9.07155 11.9682C9.08007 14.2778 9.08007 16.5958 9.07155 18.9054C9.07155 19.6894 8.76474 19.9877 7.98921 19.9962C6.8387 20.0048 5.67966 19.9962 4.5121 19.9962ZM1.85313 12.7523C1.85313 14.576 1.85313 16.3657 1.85313 18.1469C3.67691 18.1469 5.4666 18.1469 7.24777 18.1469C7.24777 16.3316 7.24777 14.5505 7.24777 12.7523C5.44103 12.7523 3.65987 12.7523 1.85313 12.7523Z" fill="#F0F3F8"/>
<path d="M15.4897 0.00390625C16.6402 0.00390625 17.7908 0.00390625 18.9413 0.00390625C19.6912 0.00390625 19.998 0.319232 19.998 1.0692C19.998 3.35318 20.0066 5.63717 19.998 7.92115C19.998 8.79043 19.7083 9.07167 18.856 9.08019C16.5721 9.08019 14.2881 9.08019 12.0041 9.08019C11.2286 9.08019 10.9303 8.77339 10.9218 7.98933C10.9218 5.70535 10.9132 3.42136 10.9218 1.13738C10.9218 0.302188 11.22 0.00390625 12.0467 0.00390625C13.1887 0.00390625 14.3392 0.00390625 15.4897 0.00390625ZM18.1657 1.85325C16.3334 1.85325 14.5437 1.85325 12.7711 1.85325C12.7711 3.67703 12.7711 5.46672 12.7711 7.25641C14.5864 7.25641 16.3675 7.25641 18.1657 7.25641C18.1657 5.44968 18.1657 3.66851 18.1657 1.85325Z" fill="#F0F3F8"/>
<path d="M9.08019 4.54634C9.08019 7.07747 7.0604 9.08874 4.52926 9.08022C2.0237 9.08022 0.0124286 7.06043 0.00390625 4.56338C0.00390625 2.04077 2.01518 0.0124553 4.53779 0.00393301C7.05187 -0.00458933 9.08019 2.02373 9.08019 4.54634ZM4.53779 1.81919C3.03786 1.81919 1.81064 3.05493 1.81916 4.56338C1.82769 6.04627 3.0549 7.27348 4.52926 7.27348C6.06328 7.27348 7.28198 6.03775 7.27346 4.50373C7.26493 3.03788 6.02067 1.81919 4.53779 1.81919Z" fill="#F0F3F8"/>
</svg>
