<svg width="20" height="20" viewBox="0 0 20 20" fill="none" xmlns="http://www.w3.org/2000/svg">
<g clip-path="url(#clip0_582_92247)">
<path d="M12.2013 18.0207H7.8013C3.77714 18.0207 1.98047 16.224 1.98047 12.1998V7.79984C1.98047 3.77567 3.77714 1.979 7.8013 1.979H12.2013C16.2255 1.979 18.0221 3.77567 18.0221 7.79984V12.1998C18.0221 16.224 16.2255 18.0207 12.2013 18.0207ZM7.8013 3.354C4.51964 3.354 3.35547 4.51817 3.35547 7.79984V12.1998C3.35547 15.4815 4.51964 16.6457 7.8013 16.6457H12.2013C15.483 16.6457 16.6471 15.4815 16.6471 12.1998V7.79984C16.6471 4.51817 15.483 3.354 12.2013 3.354H7.8013Z" fill="#F0F3F8"/>
<path d="M11.3763 15.2707H8.6263C5.96797 15.2707 4.73047 14.0332 4.73047 11.3748V8.62484C4.73047 5.9665 5.96797 4.729 8.6263 4.729H11.3763C14.0346 4.729 15.2721 5.9665 15.2721 8.62484V11.3748C15.2721 14.0332 14.0346 15.2707 11.3763 15.2707ZM8.6263 6.104C6.71964 6.104 6.10547 6.71817 6.10547 8.62484V11.3748C6.10547 13.2815 6.71964 13.8957 8.6263 13.8957H11.3763C13.283 13.8957 13.8971 13.2815 13.8971 11.3748V8.62484C13.8971 6.71817 13.283 6.104 11.3763 6.104H8.6263Z" fill="#F0F3F8"/>
<path d="M6.34375 3.35433C5.95875 3.35433 5.65625 3.04266 5.65625 2.66683V0.833496C5.65625 0.457663 5.96792 0.145996 6.34375 0.145996C6.71958 0.145996 7.03125 0.457663 7.03125 0.833496V2.66683C7.03125 3.04266 6.71958 3.35433 6.34375 3.35433Z" fill="#F0F3F8"/>
<path d="M10 3.35427C9.62417 3.35427 9.3125 3.0426 9.3125 2.66677V0.833435C9.3125 0.457602 9.62417 0.145935 10 0.145935C10.3758 0.145935 10.6875 0.457602 10.6875 0.833435V2.66677C10.6875 3.0426 10.3758 3.35427 10 3.35427Z" fill="#F0F3F8"/>
<path d="M13.668 3.35433C13.2921 3.35433 12.9805 3.04266 12.9805 2.66683V0.833496C12.9805 0.457663 13.2921 0.145996 13.668 0.145996C14.0438 0.145996 14.3555 0.457663 14.3555 0.833496V2.66683C14.3555 3.04266 14.0438 3.35433 13.668 3.35433Z" fill="#F0F3F8"/>
<path d="M19.1654 7.021H17.332C16.9562 7.021 16.6445 6.70933 16.6445 6.3335C16.6445 5.95766 16.9562 5.646 17.332 5.646H19.1654C19.5412 5.646 19.8529 5.95766 19.8529 6.3335C19.8529 6.70933 19.5504 7.021 19.1654 7.021Z" fill="#F0F3F8"/>
<path d="M19.1654 10.6875H17.332C16.9562 10.6875 16.6445 10.3758 16.6445 10C16.6445 9.62417 16.9562 9.3125 17.332 9.3125H19.1654C19.5412 9.3125 19.8529 9.62417 19.8529 10C19.8529 10.3758 19.5504 10.6875 19.1654 10.6875Z" fill="#F0F3F8"/>
<path d="M19.1654 14.354H17.332C16.9562 14.354 16.6445 14.0423 16.6445 13.6665C16.6445 13.2907 16.9562 12.979 17.332 12.979H19.1654C19.5412 12.979 19.8529 13.2907 19.8529 13.6665C19.8529 14.0423 19.5504 14.354 19.1654 14.354Z" fill="#F0F3F8"/>
<path d="M13.668 19.8543C13.2921 19.8543 12.9805 19.5427 12.9805 19.1668V17.3335C12.9805 16.9577 13.2921 16.646 13.668 16.646C14.0438 16.646 14.3555 16.9577 14.3555 17.3335V19.1668C14.3555 19.5427 14.0438 19.8543 13.668 19.8543Z" fill="#F0F3F8"/>
<path d="M10.0078 19.8543C9.63198 19.8543 9.32031 19.5427 9.32031 19.1668V17.3335C9.32031 16.9577 9.63198 16.646 10.0078 16.646C10.3836 16.646 10.6953 16.9577 10.6953 17.3335V19.1668C10.6953 19.5427 10.3836 19.8543 10.0078 19.8543Z" fill="#F0F3F8"/>
<path d="M6.34375 19.8543C5.96792 19.8543 5.65625 19.5427 5.65625 19.1668V17.3335C5.65625 16.9577 5.96792 16.646 6.34375 16.646C6.71958 16.646 7.03125 16.9577 7.03125 17.3335V19.1668C7.03125 19.5427 6.71958 19.8543 6.34375 19.8543Z" fill="#F0F3F8"/>
<path d="M2.66536 7.021H0.832031C0.456198 7.021 0.144531 6.7185 0.144531 6.3335C0.144531 5.9485 0.456198 5.646 0.832031 5.646H2.66536C3.0412 5.646 3.35286 5.95766 3.35286 6.3335C3.35286 6.70933 3.05036 7.021 2.66536 7.021Z" fill="#F0F3F8"/>
<path d="M2.66536 10.6875H0.832031C0.456198 10.6875 0.144531 10.3758 0.144531 10C0.144531 9.62417 0.456198 9.3125 0.832031 9.3125H2.66536C3.0412 9.3125 3.35286 9.62417 3.35286 10C3.35286 10.3758 3.05036 10.6875 2.66536 10.6875Z" fill="#F0F3F8"/>
<path d="M2.66536 14.354H0.832031C0.456198 14.354 0.144531 14.0423 0.144531 13.6665C0.144531 13.2907 0.456198 12.979 0.832031 12.979H2.66536C3.0412 12.979 3.35286 13.2907 3.35286 13.6665C3.35286 14.0423 3.05036 14.354 2.66536 14.354Z" fill="#F0F3F8"/>
<path d="M10.0002 12.7959C9.88107 12.7959 9.7619 12.7684 9.66107 12.7042C9.33107 12.5117 9.22107 12.0901 9.4044 11.7692L10.0277 10.6876H9.4869C9.0469 10.6876 8.6894 10.4951 8.4969 10.1651C8.3044 9.83508 8.32273 9.42258 8.53357 9.04674L9.39523 7.54341C9.58773 7.21341 10.0094 7.10341 10.3302 7.28674C10.6602 7.47924 10.7702 7.90091 10.5869 8.22174L9.96357 9.30341H10.5044C10.9444 9.30341 11.3019 9.49591 11.4944 9.82591C11.6869 10.1559 11.6686 10.5684 11.4577 10.9442L10.5961 12.4476C10.4677 12.6767 10.2386 12.7959 10.0002 12.7959Z" fill="#F0F3F8"/>
</g>
<defs>
<clipPath id="clip0_582_92247">
<rect width="20" height="20" fill="white"/>
</clipPath>
</defs>
</svg>
