<svg width="20" height="20" viewBox="0 0 20 20" fill="none" xmlns="http://www.w3.org/2000/svg">
<path d="M-0.00147114 13.1743L-0.00147086 6.8257C-0.00147066 2.04479 2.04777 -5.11521e-07 6.8391 -3.02085e-07L6.96596 -2.9654e-07C11.2986 -1.07152e-07 13.3869 1.70399 13.748 5.52093C13.7773 5.91042 13.4845 6.28043 13.0844 6.31938C12.6843 6.35832 12.3233 6.06621 12.2842 5.65725C12.0012 2.5998 10.557 1.46056 6.9562 1.46056L6.82934 1.46056C2.85771 1.46056 1.45252 2.86271 1.45252 6.8257L1.45252 13.1743C1.45252 17.1373 2.85771 18.5394 6.82934 18.5394L6.9562 18.5394C10.5765 18.5394 12.0208 17.3807 12.2842 14.2648C12.3233 13.8656 12.6746 13.5638 13.0747 13.6027C13.4747 13.6417 13.7773 13.9825 13.7382 14.3914C13.4064 18.2668 11.3084 20 6.94644 20L6.81958 20C2.04777 20 -0.00147135 17.9552 -0.00147114 13.1743Z" fill="#F0F3F8"/>
<path d="M6.34146 9.99981C6.34146 9.60059 6.67324 9.26953 7.07333 9.26953L18.1783 9.26953C18.5784 9.26953 18.9102 9.60059 18.9102 9.99981C18.9102 10.399 18.5784 10.7301 18.1783 10.7301L7.07333 10.7301C6.67324 10.7301 6.34146 10.399 6.34146 9.99981Z" fill="#F0F3F8"/>
<path d="M15.2697 13.2617C15.2697 13.0767 15.338 12.8917 15.4843 12.7456L18.2362 9.99979L15.4843 7.25392C15.2014 6.97155 15.2014 6.50417 15.4843 6.22179C15.7673 5.93942 16.2357 5.93942 16.5187 6.22179L19.7878 9.48372C20.0707 9.7661 20.0707 10.2335 19.7878 10.5159L16.5187 13.7778C16.2357 14.0602 15.7673 14.0602 15.4843 13.7778C15.338 13.6415 15.2697 13.4467 15.2697 13.2617Z" fill="#F0F3F8"/>
</svg>
