<svg width="147" height="46" viewBox="0 0 147 46" fill="none" xmlns="http://www.w3.org/2000/svg">
<path fill-rule="evenodd" clip-rule="evenodd" d="M34.062 7.94936H15.3242V0H42.0114V26.6872H34.062V7.94936Z" fill="#A7B8CA"/>
<path fill-rule="evenodd" clip-rule="evenodd" d="M19.4319 23.7671C18.218 22.956 16.7908 22.5231 15.3309 22.5231V14.5737C18.3631 14.5737 21.3272 15.4729 23.8483 17.1574C26.3695 18.842 28.3345 21.2364 29.4948 24.0377C30.6552 26.8391 30.9588 29.9216 30.3672 32.8956C29.7757 35.8695 28.3156 38.6012 26.1715 40.7452C24.0274 42.8893 21.2957 44.3494 18.3218 44.941C15.3479 45.5325 12.2654 45.2289 9.46401 44.0685C6.66265 42.9082 4.26829 40.9432 2.58371 38.422C0.899132 35.9008 -5.77605e-06 32.9368 0 29.9046L7.94936 29.9046C7.94936 31.3645 8.38228 32.7917 9.19337 34.0056C10.0045 35.2195 11.1573 36.1656 12.5061 36.7243C13.8549 37.283 15.3391 37.4292 16.771 37.1443C18.2029 36.8595 19.5181 36.1565 20.5505 35.1242C21.5828 34.0918 22.2858 32.7766 22.5706 31.3447C22.8554 29.9128 22.7093 28.4286 22.1506 27.0798C21.5919 25.731 20.6458 24.5782 19.4319 23.7671Z" fill="#DBE1EA"/>
<path d="M55.0856 12.4499C55.0856 10.9898 55.4015 9.69116 56.0332 8.55396C56.665 7.40272 57.5425 6.51121 58.6657 5.87944C59.8029 5.23362 61.0875 4.91071 62.5195 4.91071C64.2744 4.91071 65.7767 5.37401 67.0262 6.30062C68.2757 7.22723 69.1111 8.49079 69.5322 10.0913H65.5731C65.2783 9.47355 64.8571 9.00323 64.3095 8.68032C63.776 8.35741 63.1653 8.19596 62.4774 8.19596C61.3683 8.19596 60.4697 8.58204 59.7818 9.35422C59.0939 10.1264 58.7499 11.1583 58.7499 12.4499C58.7499 13.7416 59.0939 14.7735 59.7818 15.5456C60.4697 16.3178 61.3683 16.7039 62.4774 16.7039C63.1653 16.7039 63.776 16.5424 64.3095 16.2195C64.8571 15.8966 65.2783 15.4263 65.5731 14.8086H69.5322C69.1111 16.4091 68.2757 17.6726 67.0262 18.5992C65.7767 19.5118 64.2744 19.9681 62.5195 19.9681C61.0875 19.9681 59.8029 19.6522 58.6657 19.0204C57.5425 18.3746 56.665 17.4831 56.0332 16.3459C55.4015 15.2087 55.0856 13.91 55.0856 12.4499ZM75.3387 17.083H80.056V19.8628H71.7375V5.07918H75.3387V17.083ZM85.3747 5.07918V19.8628H81.7736V5.07918H85.3747ZM91.5856 7.9643V10.9547H96.4082V13.7345H91.5856V16.9777H97.0399V19.8628H87.9844V5.07918H97.0399V7.9643H91.5856ZM112.603 19.8628H109.002L102.979 10.7441V19.8628H99.3778V5.07918H102.979L109.002 14.24V5.07918H112.603V19.8628ZM125.848 5.07918V7.9643H121.931V19.8628H118.33V7.9643H114.413V5.07918H125.848ZM128.477 5.07918H132.162L129.804 10.7231H127.382L128.477 5.07918ZM139.627 20.0102C138.546 20.0102 137.577 19.8347 136.721 19.4837C135.864 19.1327 135.176 18.6133 134.657 17.9253C134.151 17.2374 133.885 16.4091 133.857 15.4403H137.689C137.746 15.9879 137.935 16.4091 138.258 16.7039C138.581 16.9847 139.002 17.1251 139.522 17.1251C140.055 17.1251 140.476 17.0058 140.785 16.7671C141.094 16.5144 141.248 16.1704 141.248 15.7352C141.248 15.3701 141.122 15.0683 140.869 14.8296C140.631 14.591 140.329 14.3944 139.964 14.24C139.613 14.0855 139.107 13.91 138.448 13.7135C137.493 13.4187 136.714 13.1238 136.11 12.829C135.506 12.5342 134.987 12.0989 134.552 11.5233C134.116 10.9477 133.899 10.1966 133.899 9.26998C133.899 7.89411 134.397 6.82008 135.394 6.04791C136.391 5.2617 137.689 4.86859 139.29 4.86859C140.919 4.86859 142.231 5.2617 143.228 6.04791C144.225 6.82008 144.758 7.90113 144.829 9.29104H140.933C140.904 8.81369 140.729 8.44165 140.406 8.1749C140.083 7.89411 139.669 7.75371 139.164 7.75371C138.728 7.75371 138.377 7.87305 138.111 8.11172C137.844 8.33635 137.71 8.66628 137.71 9.1015C137.71 9.57885 137.935 9.95089 138.384 10.2176C138.834 10.4844 139.536 10.7722 140.49 11.0811C141.445 11.404 142.217 11.7129 142.807 12.0077C143.411 12.3025 143.93 12.7307 144.365 13.2923C144.8 13.8539 145.018 14.5769 145.018 15.4614C145.018 16.3038 144.8 17.0689 144.365 17.7569C143.944 18.4448 143.326 18.9923 142.512 19.3995C141.698 19.8066 140.736 20.0102 139.627 20.0102ZM59.2974 37.083H64.0147V39.8628H55.6963V25.0792H59.2974V37.083ZM72.724 40.0102C71.3341 40.0102 70.0565 39.6873 68.8913 39.0415C67.74 38.3957 66.8204 37.4971 66.1325 36.3459C65.4586 35.1806 65.1216 33.8749 65.1216 32.4289C65.1216 30.9828 65.4586 29.6841 66.1325 28.5329C66.8204 27.3817 67.74 26.4831 68.8913 25.8373C70.0565 25.1915 71.3341 24.8686 72.724 24.8686C74.114 24.8686 75.3845 25.1915 76.5358 25.8373C77.701 26.4831 78.6136 27.3817 79.2735 28.5329C79.9474 29.6841 80.2843 30.9828 80.2843 32.4289C80.2843 33.8749 79.9474 35.1806 79.2735 36.3459C78.5996 37.4971 77.687 38.3957 76.5358 39.0415C75.3845 39.6873 74.114 40.0102 72.724 40.0102ZM72.724 36.725C73.9034 36.725 74.844 36.3319 75.546 35.5456C76.262 34.7594 76.62 33.7205 76.62 32.4289C76.62 31.1232 76.262 30.0843 75.546 29.3121C74.844 28.5259 73.9034 28.1328 72.724 28.1328C71.5307 28.1328 70.576 28.5189 69.86 29.291C69.158 30.0632 68.807 31.1092 68.807 32.4289C68.807 33.7345 69.158 34.7805 69.86 35.5667C70.576 36.3389 71.5307 36.725 72.724 36.725ZM92.1014 29.7543C91.8346 29.263 91.4485 28.8909 90.9431 28.6382C90.4517 28.3714 89.8691 28.2381 89.1952 28.2381C88.0299 28.2381 87.0963 28.6242 86.3943 29.3963C85.6923 30.1545 85.3413 31.1723 85.3413 32.4499C85.3413 33.8118 85.7064 34.8788 86.4364 35.6509C87.1805 36.4091 88.1984 36.7881 89.49 36.7881C90.3745 36.7881 91.1186 36.5635 91.7223 36.1142C92.34 35.665 92.7893 35.0192 93.0701 34.1768H88.5002V31.5233H96.3343V34.8717C96.0675 35.7703 95.6112 36.6056 94.9654 37.3778C94.3337 38.15 93.5264 38.7747 92.5436 39.2521C91.5608 39.7294 90.4517 39.9681 89.2162 39.9681C87.7561 39.9681 86.4505 39.6522 85.2992 39.0204C84.162 38.3746 83.2705 37.4831 82.6247 36.3459C81.9929 35.2087 81.677 33.91 81.677 32.4499C81.677 30.9898 81.9929 29.6912 82.6247 28.554C83.2705 27.4027 84.162 26.5112 85.2992 25.8794C86.4364 25.2336 87.7351 24.9107 89.1952 24.9107C90.9642 24.9107 92.4524 25.3389 93.6598 26.1953C94.8812 27.0517 95.6885 28.2381 96.0816 29.7543H92.1014ZM105.321 40.0102C103.931 40.0102 102.653 39.6873 101.488 39.0415C100.337 38.3957 99.417 37.4971 98.7291 36.3459C98.0552 35.1806 97.7183 33.8749 97.7183 32.4289C97.7183 30.9828 98.0552 29.6841 98.7291 28.5329C99.417 27.3817 100.337 26.4831 101.488 25.8373C102.653 25.1915 103.931 24.8686 105.321 24.8686C106.711 24.8686 107.981 25.1915 109.132 25.8373C110.298 26.4831 111.21 27.3817 111.87 28.5329C112.544 29.6841 112.881 30.9828 112.881 32.4289C112.881 33.8749 112.544 35.1806 111.87 36.3459C111.196 37.4971 110.284 38.3957 109.132 39.0415C107.981 39.6873 106.711 40.0102 105.321 40.0102ZM105.321 36.725C106.5 36.725 107.441 36.3319 108.143 35.5456C108.859 34.7594 109.217 33.7205 109.217 32.4289C109.217 31.1232 108.859 30.0843 108.143 29.3121C107.441 28.5259 106.5 28.1328 105.321 28.1328C104.127 28.1328 103.173 28.5189 102.457 29.291C101.755 30.0632 101.404 31.1092 101.404 32.4289C101.404 33.7345 101.755 34.7805 102.457 35.5667C103.173 36.3389 104.127 36.725 105.321 36.725Z" fill="#EDF2F8"/>
</svg>
