<svg width="20" height="20" viewBox="0 0 20 20" fill="none" xmlns="http://www.w3.org/2000/svg">
<path d="M19.6648 18.0791L13.9665 12.4294C14.9721 11.0734 15.419 9.49153 15.419 7.79661C15.419 5.76271 14.6369 3.72881 13.1844 2.25989C11.7318 0.79096 9.8324 0 7.7095 0C5.69832 0 3.68715 0.79096 2.23464 2.25989C0.782123 3.72881 0 5.64972 0 7.79661C0 9.9435 0.782123 11.8644 2.23464 13.3333C3.68715 14.8023 5.58659 15.5932 7.7095 15.5932C9.38548 15.5932 11.0615 15.0282 12.4022 14.0113L18.1006 19.661C18.324 19.887 18.5475 20 18.8827 20C19.2179 20 19.4413 19.887 19.6648 19.661C20.1117 19.209 20.1117 18.4181 19.6648 18.0791ZM7.7095 13.4463C4.69274 13.4463 2.23464 10.8475 2.23464 7.79661C2.23464 4.74576 4.69274 2.25989 7.7095 2.25989C10.7263 2.25989 13.1844 4.74576 13.1844 7.79661C13.2961 10.8475 10.7263 13.4463 7.7095 13.4463Z" fill="#8BA3BE"/>
</svg>
