<svg width="19" height="20" viewBox="0 0 19 20" fill="none" xmlns="http://www.w3.org/2000/svg">
<path d="M13.4063 9.87746C13.4063 10.4847 12.8869 10.9853 12.257 10.9853L3.93352 10.9853L7.66427 14.6013C7.88528 14.8037 8.00684 15.0807 8.00684 15.3789C8.00684 15.6772 7.89633 15.9542 7.67532 16.1566C7.46535 16.3696 7.17803 16.4868 6.86861 16.4868L6.85756 16.4868C6.54814 16.4868 6.27187 16.3696 6.05085 16.1672L0.342019 10.6658C0.121003 10.4527 -0.000555291 10.1757 -0.000555212 9.87746C-0.000555134 9.57919 0.121003 9.30222 0.342019 9.08917L6.05085 3.5877C6.26082 3.3853 6.54814 3.26812 6.85756 3.26812C7.16698 3.26812 7.4543 3.3853 7.67532 3.59835C8.11735 4.03511 8.11735 4.73818 7.66427 5.16428L3.93352 8.78024L12.257 8.78025C12.8869 8.78025 13.4063 9.27027 13.4063 9.87746Z" fill="white"/>
<path d="M19 18.1636L19 1.75034C19 1.14314 18.4806 0.642473 17.8507 0.642473C17.2208 0.642473 16.7014 1.14314 16.7014 1.75034L16.7014 18.1636C16.7014 18.7708 17.2208 19.2715 17.8507 19.2715C18.4806 19.2715 19 18.7708 19 18.1636Z" fill="white"/>
</svg>
