<svg width="19" height="19" viewBox="0 0 19 19" fill="none" xmlns="http://www.w3.org/2000/svg">
<path d="M5.59373 9.39401C5.59373 8.78681 6.11312 8.28614 6.74301 8.28614L15.0665 8.28614L11.3357 4.67018C11.1147 4.46778 10.9931 4.19081 10.9931 3.89254C10.9931 3.59427 11.1037 3.3173 11.3247 3.1149C11.5346 2.90185 11.822 2.78467 12.1314 2.78467L12.1424 2.78467C12.4518 2.78467 12.7281 2.90185 12.9491 3.10425L18.658 8.60572C18.879 8.81877 19.0005 9.09574 19.0005 9.39401C19.0005 9.69228 18.879 9.96925 18.658 10.1823L12.9491 15.6838C12.7392 15.8862 12.4518 16.0033 12.1424 16.0033C11.833 16.0033 11.5457 15.8862 11.3247 15.6731C10.8826 15.2364 10.8826 14.5333 11.3357 14.1072L15.0665 10.4912L6.74301 10.4912C6.11312 10.4912 5.59373 10.0012 5.59373 9.39401Z" fill="white"/>
<path d="M-1.54525e-05 1.10787L-1.83223e-05 17.5211C-1.84284e-05 18.1283 0.519368 18.629 1.14926 18.629C1.77916 18.629 2.29854 18.1283 2.29854 17.5211L2.29855 1.10787C2.29855 0.500672 1.77916 3.11081e-07 1.14927 2.00947e-07C0.519371 9.08125e-08 -1.53463e-05 0.500671 -1.54525e-05 1.10787Z" fill="white"/>
</svg>
