<svg width="20" height="20" viewBox="0 0 20 20" fill="none" xmlns="http://www.w3.org/2000/svg">
<path d="M10.9302 20.0001H3.48837C1.23721 20.0001 0 18.7629 0 16.5118V9.06992C0 6.81875 1.23721 5.58154 3.48837 5.58154H8.13953C8.52093 5.58154 8.83721 5.89782 8.83721 6.27922V16.5118C8.83721 17.9815 9.46046 18.6048 10.9302 18.6048C11.3116 18.6048 11.6279 18.9211 11.6279 19.3025C11.6279 19.6839 11.3116 20.0001 10.9302 20.0001ZM3.48837 6.97689C2.0186 6.97689 1.39535 7.60015 1.39535 9.06992V16.5118C1.39535 17.9815 2.0186 18.6048 3.48837 18.6048H7.95348C7.61859 18.056 7.44186 17.3583 7.44186 16.5118V6.97689H3.48837Z" fill="#F0F3F8"/>
<path d="M8.1379 6.97663H3.48674C3.10534 6.97663 2.78906 6.66035 2.78906 6.27896V4.41849C2.78906 3.00454 3.93325 1.86035 5.3472 1.86035H8.24021C8.45416 1.86035 8.65884 1.96266 8.78907 2.1301C8.91931 2.30684 8.96579 2.53012 8.90998 2.73477C8.85417 2.93942 8.83557 3.17198 8.83557 3.48826V6.27896C8.83557 6.66035 8.51929 6.97663 8.1379 6.97663ZM4.18441 5.58128H7.44023V3.48826C7.44023 3.40454 7.44023 3.33012 7.44023 3.2557H5.3472C4.70534 3.2557 4.18441 3.77663 4.18441 4.41849V5.58128Z" fill="#F0F3F8"/>
<path d="M11.8617 11.6281C11.4803 11.6281 11.1641 11.3118 11.1641 10.9304V6.27922C11.1641 5.89782 11.4803 5.58154 11.8617 5.58154C12.2431 5.58154 12.5594 5.89782 12.5594 6.27922V10.9304C12.5594 11.3118 12.2431 11.6281 11.8617 11.6281Z" fill="#F0F3F8"/>
<path d="M15.5805 11.6281C15.1991 11.6281 14.8828 11.3118 14.8828 10.9304V6.27922C14.8828 5.89782 15.1991 5.58154 15.5805 5.58154C15.9619 5.58154 16.2782 5.89782 16.2782 6.27922V10.9304C16.2782 11.3118 15.9619 11.6281 15.5805 11.6281Z" fill="#F0F3F8"/>
<path d="M15.5827 20.0001H11.8617C11.4803 20.0001 11.1641 19.6838 11.1641 19.3025V15.5815C11.1641 14.6885 11.8989 13.9536 12.792 13.9536H14.6524C15.5455 13.9536 16.2803 14.6885 16.2803 15.5815V19.3025C16.2803 19.6838 15.9641 20.0001 15.5827 20.0001ZM12.5594 18.6048H14.885V15.5815C14.885 15.4513 14.7827 15.349 14.6524 15.349H12.792C12.6617 15.349 12.5594 15.4513 12.5594 15.5815V18.6048Z" fill="#F0F3F8"/>
<path d="M4.42033 15.3487C4.03894 15.3487 3.72266 15.0324 3.72266 14.651V10.9301C3.72266 10.5487 4.03894 10.2324 4.42033 10.2324C4.80173 10.2324 5.11801 10.5487 5.11801 10.9301V14.651C5.11801 15.0324 4.80173 15.3487 4.42033 15.3487Z" fill="#F0F3F8"/>
<path d="M16.5112 20H10.9298C8.67862 20 7.44141 18.7628 7.44141 16.5116V3.48837C7.44141 1.23721 8.67862 0 10.9298 0H16.5112C18.7623 0 19.9995 1.23721 19.9995 3.48837V16.5116C19.9995 18.7628 18.7623 20 16.5112 20ZM10.9298 1.39535C9.46001 1.39535 8.83676 2.0186 8.83676 3.48837V16.5116C8.83676 17.9814 9.46001 18.6047 10.9298 18.6047H16.5112C17.9809 18.6047 18.6042 17.9814 18.6042 16.5116V3.48837C18.6042 2.0186 17.9809 1.39535 16.5112 1.39535H10.9298Z" fill="#F0F3F8"/>
</svg>
