<svg width="20" height="20" viewBox="0 0 20 20" fill="none" xmlns="http://www.w3.org/2000/svg">
<path d="M14.479 4.44344C14.479 6.91941 12.4426 8.88685 9.89065 8.87851C7.36451 8.87018 5.32812 6.90274 5.32812 4.46011C5.32812 1.99248 7.35591 0.00836278 9.89924 2.61747e-05C12.4426 -0.00831043 14.4875 1.9758 14.479 4.44344ZM9.89924 1.77572C8.38699 1.77572 7.1497 2.98453 7.15829 4.46011C7.16688 5.91068 8.40418 7.11115 9.89065 7.11115C11.4373 7.11115 12.666 5.90235 12.6574 4.40176C12.6488 2.95952 11.4029 1.77572 9.89924 1.77572Z" fill="#F0F3F8"/>
<path d="M17.0912 18.4827C16.4553 18.8329 15.7594 19.1247 14.9861 19.3414C14.2041 19.5665 13.3449 19.7332 12.3654 19.8416C11.4718 19.95 10.604 20 9.76191 20C7.73411 20 5.86958 19.6916 4.11674 19.083C3.47231 18.8579 2.79352 18.5078 2.03739 18.0076C1.19534 17.4323 0.765724 16.5903 0.82587 15.5483C0.937571 13.3224 1.78821 11.38 3.33483 9.77933C3.85037 9.24579 4.44325 9.1791 4.91583 9.59593C5.11345 9.77933 5.22515 9.99608 5.23374 10.2462C5.24233 10.5463 5.10486 10.8548 4.82131 11.1382C3.74727 12.2386 3.11143 13.5642 2.87944 15.1981C2.77633 15.9151 3.01692 16.3903 3.61838 16.682C4.16829 16.9488 4.76976 17.2239 5.3884 17.4073C6.77177 17.8242 8.22388 17.9992 10.2603 17.9992C11.5319 17.9826 13.4394 17.8742 15.2438 17.1406C17.1771 16.3486 17.1255 16.0985 16.799 14.4645L16.7733 14.3311C16.5413 13.189 15.9656 12.1386 15.0032 11.1132C14.7884 10.8798 14.5736 10.4796 14.608 10.1461C14.6424 9.82935 15.0032 9.43753 15.3212 9.37084C15.6391 9.29581 16.1116 9.43753 16.3608 9.67096C17.5895 10.8214 18.4144 12.272 18.8096 13.9977C18.8698 14.2478 18.9042 14.5062 18.9385 14.7563L18.9471 14.8397C19.1877 16.632 18.6979 17.5824 17.0912 18.4827Z" fill="#F0F3F8"/>
<path d="M10.0452 13.6133C10.5577 13.6133 10.9731 13.2102 10.9731 12.7129C10.9731 12.2157 10.5577 11.8126 10.0452 11.8126C9.53266 11.8126 9.11719 12.2157 9.11719 12.7129C9.11719 13.2102 9.53266 13.6133 10.0452 13.6133Z" fill="#F0F3F8"/>
</svg>
